<svg width="186" height="32" viewBox="0 0 186 32" fill="none" xmlns="http://www.w3.org/2000/svg">
<path d="M8 14V17M12 10V21M16 7V25M20 12V19M24 9V22M28 14V17" stroke="#364050" stroke-width="2" stroke-linecap="round" stroke-linejoin="round"/>
<path d="M40.642 22H38.392L42.4886 10.3636H45.0909L49.1932 22H46.9432L43.8352 12.75H43.7443L40.642 22ZM40.7159 17.4375H46.8523V19.1307H40.7159V17.4375ZM56.1974 18.3295V13.2727H58.2543V22H56.2599V20.4489H56.169C55.9721 20.9375 55.6482 21.3371 55.1974 21.6477C54.7505 21.9583 54.1993 22.1136 53.544 22.1136C52.9721 22.1136 52.4664 21.9867 52.027 21.733C51.5914 21.4754 51.2505 21.1023 51.0043 20.6136C50.758 20.1212 50.6349 19.5265 50.6349 18.8295V13.2727H52.6918V18.5114C52.6918 19.0644 52.8433 19.5038 53.1463 19.8295C53.4493 20.1553 53.8471 20.3182 54.3395 20.3182C54.6425 20.3182 54.9361 20.2443 55.2202 20.0966C55.5043 19.9489 55.7372 19.7292 55.919 19.4375C56.1046 19.142 56.1974 18.7727 56.1974 18.3295ZM63.608 22.1534C62.9223 22.1534 62.3087 21.9773 61.767 21.625C61.2254 21.2727 60.7973 20.7614 60.483 20.0909C60.1686 19.4205 60.0114 18.6061 60.0114 17.6477C60.0114 16.678 60.1705 15.8598 60.4886 15.1932C60.8106 14.5227 61.2443 14.017 61.7898 13.6761C62.3352 13.3314 62.9432 13.1591 63.6136 13.1591C64.125 13.1591 64.5455 13.2462 64.875 13.4205C65.2045 13.5909 65.4659 13.7973 65.6591 14.0398C65.8523 14.2784 66.0019 14.5038 66.108 14.7159H66.1932V10.3636H68.2557V22H66.233V20.625H66.108C66.0019 20.8371 65.8485 21.0625 65.6477 21.3011C65.447 21.536 65.1818 21.7367 64.8523 21.9034C64.5227 22.0701 64.108 22.1534 63.608 22.1534ZM64.1818 20.4659C64.6174 20.4659 64.9886 20.3485 65.2955 20.1136C65.6023 19.875 65.8352 19.5436 65.9943 19.1193C66.1534 18.6951 66.233 18.2008 66.233 17.6364C66.233 17.072 66.1534 16.5814 65.9943 16.1648C65.839 15.7481 65.608 15.4242 65.3011 15.1932C64.9981 14.9621 64.625 14.8466 64.1818 14.8466C63.7235 14.8466 63.3409 14.9659 63.0341 15.2045C62.7273 15.4432 62.4962 15.7727 62.3409 16.1932C62.1856 16.6136 62.108 17.0947 62.108 17.6364C62.108 18.1818 62.1856 18.6686 62.3409 19.0966C62.5 19.5208 62.733 19.8561 63.0398 20.1023C63.3504 20.3447 63.7311 20.4659 64.1818 20.4659ZM70.4474 22V13.2727H72.5043V22H70.4474ZM71.4815 12.0341C71.1558 12.0341 70.8755 11.9261 70.6406 11.7102C70.4058 11.4905 70.2884 11.2273 70.2884 10.9205C70.2884 10.6098 70.4058 10.3466 70.6406 10.1307C70.8755 9.91098 71.1558 9.80114 71.4815 9.80114C71.8111 9.80114 72.0914 9.91098 72.3224 10.1307C72.5573 10.3466 72.6747 10.6098 72.6747 10.9205C72.6747 11.2273 72.5573 11.4905 72.3224 11.7102C72.0914 11.9261 71.8111 12.0341 71.4815 12.0341ZM78.4261 22.1705C77.5739 22.1705 76.8352 21.983 76.2102 21.608C75.5852 21.233 75.1004 20.7083 74.7557 20.0341C74.4148 19.3598 74.2443 18.572 74.2443 17.6705C74.2443 16.7689 74.4148 15.9792 74.7557 15.3011C75.1004 14.6231 75.5852 14.0966 76.2102 13.7216C76.8352 13.3466 77.5739 13.1591 78.4261 13.1591C79.2784 13.1591 80.017 13.3466 80.642 13.7216C81.267 14.0966 81.75 14.6231 82.0909 15.3011C82.4356 15.9792 82.608 16.7689 82.608 17.6705C82.608 18.572 82.4356 19.3598 82.0909 20.0341C81.75 20.7083 81.267 21.233 80.642 21.608C80.017 21.983 79.2784 22.1705 78.4261 22.1705ZM78.4375 20.5227C78.8996 20.5227 79.286 20.3958 79.5966 20.142C79.9072 19.8845 80.1383 19.5398 80.2898 19.108C80.4451 18.6761 80.5227 18.1951 80.5227 17.6648C80.5227 17.1307 80.4451 16.6477 80.2898 16.2159C80.1383 15.7803 79.9072 15.4337 79.5966 15.1761C79.286 14.9186 78.8996 14.7898 78.4375 14.7898C77.964 14.7898 77.5701 14.9186 77.2557 15.1761C76.9451 15.4337 76.7121 15.7803 76.5568 16.2159C76.4053 16.6477 76.3295 17.1307 76.3295 17.6648C76.3295 18.1951 76.4053 18.6761 76.5568 19.108C76.7121 19.5398 76.9451 19.8845 77.2557 20.142C77.5701 20.3958 77.964 20.5227 78.4375 20.5227ZM88.4134 22V10.3636H92.777C93.6709 10.3636 94.4209 10.5189 95.027 10.8295C95.6368 11.1402 96.0971 11.5758 96.4077 12.1364C96.7221 12.6932 96.8793 13.3428 96.8793 14.0852C96.8793 14.8314 96.7202 15.4792 96.402 16.0284C96.0876 16.5739 95.6236 16.9962 95.0099 17.2955C94.3963 17.5909 93.6425 17.7386 92.7486 17.7386H89.6406V15.9886H92.4645C92.9872 15.9886 93.4152 15.9167 93.7486 15.7727C94.0819 15.625 94.3281 15.411 94.4872 15.1307C94.6501 14.8466 94.7315 14.4981 94.7315 14.0852C94.7315 13.6723 94.6501 13.3201 94.4872 13.0284C94.3243 12.733 94.0762 12.5095 93.7429 12.358C93.4096 12.2027 92.9796 12.125 92.4531 12.125H90.5213V22H88.4134ZM94.4247 16.7273L97.3054 22H94.9531L92.1236 16.7273H94.4247ZM102.467 22.1705C101.592 22.1705 100.837 21.9886 100.2 21.625C99.5677 21.2576 99.081 20.7386 98.7401 20.0682C98.3991 19.3939 98.2287 18.6004 98.2287 17.6875C98.2287 16.7898 98.3991 16.0019 98.7401 15.3239C99.0848 14.642 99.5658 14.1117 100.183 13.733C100.801 13.3504 101.526 13.1591 102.359 13.1591C102.897 13.1591 103.405 13.2462 103.882 13.4205C104.363 13.5909 104.787 13.8561 105.155 14.2159C105.526 14.5758 105.818 15.0341 106.03 15.5909C106.242 16.1439 106.348 16.803 106.348 17.5682V18.1989H99.1946V16.8125H104.376C104.373 16.4186 104.287 16.0682 104.121 15.7614C103.954 15.4508 103.721 15.2064 103.422 15.0284C103.126 14.8504 102.782 14.7614 102.388 14.7614C101.967 14.7614 101.598 14.8636 101.28 15.0682C100.962 15.2689 100.714 15.5341 100.536 15.8636C100.361 16.1894 100.272 16.5473 100.268 16.9375V18.1477C100.268 18.6553 100.361 19.0909 100.547 19.4545C100.732 19.8144 100.992 20.0909 101.325 20.2841C101.659 20.4735 102.049 20.5682 102.496 20.5682C102.795 20.5682 103.066 20.5265 103.308 20.4432C103.551 20.3561 103.761 20.2292 103.939 20.0625C104.117 19.8958 104.251 19.6894 104.342 19.4432L106.263 19.6591C106.142 20.1667 105.911 20.6098 105.57 20.9886C105.232 21.3636 104.801 21.6553 104.274 21.8636C103.748 22.0682 103.145 22.1705 102.467 22.1705ZM111.895 22.1705C111.024 22.1705 110.276 21.9792 109.651 21.5966C109.029 21.214 108.55 20.6856 108.213 20.0114C107.88 19.3333 107.713 18.553 107.713 17.6705C107.713 16.7841 107.884 16.0019 108.224 15.3239C108.565 14.642 109.046 14.1117 109.668 13.733C110.293 13.3504 111.031 13.1591 111.884 13.1591C112.592 13.1591 113.219 13.2898 113.764 13.5511C114.313 13.8087 114.751 14.1742 115.077 14.6477C115.402 15.1174 115.588 15.6667 115.634 16.2955H113.668C113.588 15.875 113.399 15.5246 113.099 15.2443C112.804 14.9602 112.408 14.8182 111.912 14.8182C111.491 14.8182 111.122 14.9318 110.804 15.1591C110.486 15.3826 110.238 15.7045 110.06 16.125C109.885 16.5455 109.798 17.0492 109.798 17.6364C109.798 18.2311 109.885 18.7424 110.06 19.1705C110.234 19.5947 110.478 19.9223 110.793 20.1534C111.111 20.3807 111.484 20.4943 111.912 20.4943C112.215 20.4943 112.486 20.4375 112.724 20.3239C112.967 20.2064 113.17 20.0379 113.332 19.8182C113.495 19.5985 113.607 19.3314 113.668 19.017H115.634C115.584 19.6345 115.402 20.1818 115.088 20.6591C114.774 21.1326 114.346 21.5038 113.804 21.7727C113.262 22.0379 112.626 22.1705 111.895 22.1705ZM121.129 22.1705C120.277 22.1705 119.538 21.983 118.913 21.608C118.288 21.233 117.804 20.7083 117.459 20.0341C117.118 19.3598 116.947 18.572 116.947 17.6705C116.947 16.7689 117.118 15.9792 117.459 15.3011C117.804 14.6231 118.288 14.0966 118.913 13.7216C119.538 13.3466 120.277 13.1591 121.129 13.1591C121.982 13.1591 122.72 13.3466 123.345 13.7216C123.97 14.0966 124.453 14.6231 124.794 15.3011C125.139 15.9792 125.311 16.7689 125.311 17.6705C125.311 18.572 125.139 19.3598 124.794 20.0341C124.453 20.7083 123.97 21.233 123.345 21.608C122.72 21.983 121.982 22.1705 121.129 22.1705ZM121.141 20.5227C121.603 20.5227 121.989 20.3958 122.3 20.142C122.61 19.8845 122.841 19.5398 122.993 19.108C123.148 18.6761 123.226 18.1951 123.226 17.6648C123.226 17.1307 123.148 16.6477 122.993 16.2159C122.841 15.7803 122.61 15.4337 122.3 15.1761C121.989 14.9186 121.603 14.7898 121.141 14.7898C120.667 14.7898 120.273 14.9186 119.959 15.1761C119.648 15.4337 119.415 15.7803 119.26 16.2159C119.108 16.6477 119.033 17.1307 119.033 17.6648C119.033 18.1951 119.108 18.6761 119.26 19.108C119.415 19.5398 119.648 19.8845 119.959 20.142C120.273 20.3958 120.667 20.5227 121.141 20.5227ZM130.852 25.4545C130.114 25.4545 129.479 25.3542 128.949 25.1534C128.419 24.9564 127.992 24.6913 127.67 24.358C127.348 24.0246 127.125 23.6553 127 23.25L128.852 22.8011C128.936 22.9716 129.057 23.1402 129.216 23.3068C129.375 23.4773 129.589 23.6174 129.858 23.7273C130.131 23.8409 130.473 23.8977 130.886 23.8977C131.47 23.8977 131.953 23.7557 132.335 23.4716C132.718 23.1913 132.909 22.7292 132.909 22.0852V20.4318H132.807C132.701 20.6439 132.545 20.8617 132.341 21.0852C132.14 21.3087 131.873 21.4962 131.54 21.6477C131.21 21.7992 130.795 21.875 130.295 21.875C129.625 21.875 129.017 21.7178 128.472 21.4034C127.93 21.0852 127.498 20.6117 127.176 19.983C126.858 19.3504 126.699 18.5587 126.699 17.608C126.699 16.6496 126.858 15.8409 127.176 15.1818C127.498 14.5189 127.932 14.017 128.477 13.6761C129.023 13.3314 129.631 13.1591 130.301 13.1591C130.813 13.1591 131.233 13.2462 131.562 13.4205C131.896 13.5909 132.161 13.7973 132.358 14.0398C132.555 14.2784 132.705 14.5038 132.807 14.7159H132.92V13.2727H134.949V22.142C134.949 22.8883 134.771 23.5057 134.415 23.9943C134.059 24.483 133.572 24.8485 132.955 25.0909C132.337 25.3333 131.636 25.4545 130.852 25.4545ZM130.869 20.2614C131.305 20.2614 131.676 20.1553 131.983 19.9432C132.29 19.7311 132.523 19.4261 132.682 19.0284C132.841 18.6307 132.92 18.1534 132.92 17.5966C132.92 17.0473 132.841 16.5663 132.682 16.1534C132.527 15.7405 132.295 15.4205 131.989 15.1932C131.686 14.9621 131.313 14.8466 130.869 14.8466C130.411 14.8466 130.028 14.9659 129.722 15.2045C129.415 15.4432 129.184 15.7708 129.028 16.1875C128.873 16.6004 128.795 17.0701 128.795 17.5966C128.795 18.1307 128.873 18.5985 129.028 19C129.188 19.3977 129.42 19.7083 129.727 19.9318C130.038 20.1515 130.419 20.2614 130.869 20.2614ZM139.114 16.8864V22H137.057V13.2727H139.023V14.7557H139.125C139.326 14.267 139.646 13.8788 140.085 13.5909C140.528 13.303 141.076 13.1591 141.727 13.1591C142.33 13.1591 142.854 13.2879 143.301 13.5455C143.752 13.803 144.1 14.1761 144.347 14.6648C144.597 15.1534 144.72 15.7462 144.716 16.4432V22H142.659V16.7614C142.659 16.178 142.508 15.7216 142.205 15.392C141.905 15.0625 141.491 14.8977 140.96 14.8977C140.6 14.8977 140.28 14.9773 140 15.1364C139.723 15.2917 139.506 15.517 139.347 15.8125C139.191 16.108 139.114 16.4659 139.114 16.8864ZM146.807 22V13.2727H148.864V22H146.807ZM147.841 12.0341C147.515 12.0341 147.235 11.9261 147 11.7102C146.765 11.4905 146.648 11.2273 146.648 10.9205C146.648 10.6098 146.765 10.3466 147 10.1307C147.235 9.91098 147.515 9.80114 147.841 9.80114C148.17 9.80114 148.451 9.91098 148.682 10.1307C148.917 10.3466 149.034 10.6098 149.034 10.9205C149.034 11.2273 148.917 11.4905 148.682 11.7102C148.451 11.9261 148.17 12.0341 147.841 12.0341ZM155.337 13.2727V14.8636H150.32V13.2727H155.337ZM151.558 11.1818H153.615V19.375C153.615 19.6515 153.657 19.8636 153.74 20.0114C153.827 20.1553 153.941 20.2538 154.081 20.3068C154.221 20.3598 154.376 20.3864 154.547 20.3864C154.676 20.3864 154.793 20.3769 154.899 20.358C155.009 20.339 155.092 20.322 155.149 20.3068L155.496 21.9148C155.386 21.9527 155.229 21.9943 155.024 22.0398C154.823 22.0852 154.577 22.1117 154.286 22.1193C153.77 22.1345 153.306 22.0568 152.893 21.8864C152.481 21.7121 152.153 21.4432 151.911 21.0795C151.672 20.7159 151.554 20.2614 151.558 19.7159V11.1818ZM157.057 22V13.2727H159.114V22H157.057ZM158.091 12.0341C157.765 12.0341 157.485 11.9261 157.25 11.7102C157.015 11.4905 156.898 11.2273 156.898 10.9205C156.898 10.6098 157.015 10.3466 157.25 10.1307C157.485 9.91098 157.765 9.80114 158.091 9.80114C158.42 9.80114 158.701 9.91098 158.932 10.1307C159.167 10.3466 159.284 10.6098 159.284 10.9205C159.284 11.2273 159.167 11.4905 158.932 11.7102C158.701 11.9261 158.42 12.0341 158.091 12.0341ZM165.036 22.1705C164.183 22.1705 163.445 21.983 162.82 21.608C162.195 21.233 161.71 20.7083 161.365 20.0341C161.024 19.3598 160.854 18.572 160.854 17.6705C160.854 16.7689 161.024 15.9792 161.365 15.3011C161.71 14.6231 162.195 14.0966 162.82 13.7216C163.445 13.3466 164.183 13.1591 165.036 13.1591C165.888 13.1591 166.626 13.3466 167.251 13.7216C167.876 14.0966 168.359 14.6231 168.7 15.3011C169.045 15.9792 169.217 16.7689 169.217 17.6705C169.217 18.572 169.045 19.3598 168.7 20.0341C168.359 20.7083 167.876 21.233 167.251 21.608C166.626 21.983 165.888 22.1705 165.036 22.1705ZM165.047 20.5227C165.509 20.5227 165.895 20.3958 166.206 20.142C166.517 19.8845 166.748 19.5398 166.899 19.108C167.054 18.6761 167.132 18.1951 167.132 17.6648C167.132 17.1307 167.054 16.6477 166.899 16.2159C166.748 15.7803 166.517 15.4337 166.206 15.1761C165.895 14.9186 165.509 14.7898 165.047 14.7898C164.573 14.7898 164.179 14.9186 163.865 15.1761C163.554 15.4337 163.321 15.7803 163.166 16.2159C163.015 16.6477 162.939 17.1307 162.939 17.6648C162.939 18.1951 163.015 18.6761 163.166 19.108C163.321 19.5398 163.554 19.8845 163.865 20.142C164.179 20.3958 164.573 20.5227 165.047 20.5227ZM173.02 16.8864V22H170.963V13.2727H172.929V14.7557H173.031C173.232 14.267 173.552 13.8788 173.991 13.5909C174.435 13.303 174.982 13.1591 175.634 13.1591C176.236 13.1591 176.76 13.2879 177.207 13.5455C177.658 13.803 178.007 14.1761 178.253 14.6648C178.503 15.1534 178.626 15.7462 178.622 16.4432V22H176.565V16.7614C176.565 16.178 176.414 15.7216 176.111 15.392C175.812 15.0625 175.397 14.8977 174.866 14.8977C174.507 14.8977 174.187 14.9773 173.906 15.1364C173.63 15.2917 173.412 15.517 173.253 15.8125C173.098 16.108 173.02 16.4659 173.02 16.8864Z" fill="#364050"/>
</svg>
